<svg width="34" height="35" viewBox="0 0 34 35" fill="none" xmlns="http://www.w3.org/2000/svg">
<path d="M31.8961 27.5888L3.20809 27.8551C2.44675 27.8627 1.82886 27.1683 1.82886 26.3204V21.1407C1.82886 20.7337 1.97417 20.3433 2.23283 20.0555C2.49148 19.7677 2.84229 19.606 3.20809 19.606L32.0961 20.0718L31.8961 27.5888Z" fill="#A57939"/>
<path d="M14.8487 27.9878H2.51839C1.75706 27.9878 1.13916 28.5257 1.13916 29.1895V32.7953C1.13916 33.459 1.75706 33.9969 2.51839 33.9969H31.4823C32.2436 33.9969 32.8615 33.459 32.8615 32.7953V29.1895C32.8615 28.5257 32.2443 27.9878 31.4823 27.9878H19.214" fill="#F4AA41"/>
<path d="M25.2759 27.8574H31.4824C32.2438 27.8574 32.8617 28.4076 32.8617 29.0859V32.7715C32.8617 33.4498 32.2444 34 31.4824 34H25.2759V27.8574Z" fill="#E27022"/>
<path d="M32.8615 11.1521C32.8615 11.7076 32.2443 12.1588 31.4823 12.1588H2.51839C1.75706 12.1588 1.13916 11.7084 1.13916 11.1521C2.16255 5.42379 8.86975 1 17.0003 1C25.1309 1 31.8409 5.42379 32.8615 11.1521Z" fill="#F4AA41"/>
<path d="M21.1382 1.64457C23.2581 4.17606 24.6938 7.64756 25.2759 12.1343H31.4824C32.2438 12.1343 32.8617 11.6938 32.8617 11.1513C31.8272 5.62559 25.5103 2.30372 21.1382 1.6438V1.64457Z" fill="#E27022"/>
<path d="M22.3035 19.0735H10.9731L16.6383 25.3773L22.3035 19.0735Z" fill="#FCEA2B"/>
<path d="M25.2759 19.5546V27.8573H30.7928C31.1586 27.8573 31.5094 27.6956 31.7681 27.4078C32.0267 27.12 32.172 26.7296 32.172 26.3226V21.143C32.172 20.736 32.0267 20.3456 31.7681 20.0578C31.5094 19.77 31.1586 19.6083 30.7928 19.6083H26.1958" fill="#6A462F"/>
<path fill-rule="evenodd" clip-rule="evenodd" d="M3.43555 13.9683H30.5719V15.5743H3.43555V13.9683Z" fill="#EA5A47" stroke="#EA5A47" stroke-width="2" stroke-linecap="round" stroke-linejoin="round"/>
<path fill-rule="evenodd" clip-rule="evenodd" d="M25.9929 13.9683H30.5865V15.5997H25.9929V13.9683Z" fill="#D22F27" stroke="#D22F27" stroke-width="2" stroke-linecap="round" stroke-linejoin="round"/>
<path d="M3.132 18.488L31.1166 18.1941C32.642 17.8219 32.8538 17.4114 33.0006 16.4545C31.7173 17.426 30.7242 17.4352 29.8408 17.558C28.2416 17.5495 26.7638 17.5771 25.7493 16.1384L21.6137 15.7961L18.6222 17.2648L15.6306 17.2157L12.3308 15.9419L8.81099 15.747C7.96828 16.8789 6.38216 17.2065 5.4229 17.558C3.95126 17.2572 2.37618 18.1787 1.01074 16.4553C1.34865 17.6355 1.35486 17.9693 3.13476 18.4888L3.132 18.488Z" fill="#B1CC33" stroke="#B1CC33" stroke-width="2" stroke-linejoin="round"/>
<path d="M25.9792 19.0635L31.1086 18.1933C32.634 17.8212 32.8458 17.4099 32.9926 16.4538C31.7093 17.4252 30.7162 17.4344 29.8328 17.5572C28.2336 17.5488 28.3929 17.5419 27.0199 16.776L25.9792 16.1061V19.0635Z" fill="#5C9E31" stroke="#5C9E31" stroke-width="2" stroke-linejoin="round"/>
<path fill-rule="evenodd" clip-rule="evenodd" d="M25.9929 13.9683H28.879V15.5997H25.9929V13.9683Z" fill="#D22F27" stroke="#D22F27" stroke-width="2" stroke-linecap="round"/>
<path d="M14.8488 27.8574H3.20809C2.84229 27.8574 2.49148 27.6957 2.23283 27.4079C1.97417 27.1201 1.82886 26.7297 1.82886 26.3227V21.143C1.82886 20.736 1.97417 20.3457 2.23283 20.0578C2.49148 19.77 2.84229 19.6083 3.20809 19.6083H30.7927C31.1585 19.6083 31.5093 19.77 31.768 20.0578C32.0266 20.3457 32.172 20.736 32.172 21.143V26.3227C32.172 26.7297 32.0266 27.1201 31.768 27.4079C31.5093 27.6957 31.1585 27.8574 30.7927 27.8574H19.2141H14.8488Z" stroke="black" stroke-width="2" stroke-miterlimit="10" stroke-linecap="round" stroke-linejoin="round"/>
<path d="M14.8487 27.9878H2.51839C1.75706 27.9878 1.13916 28.5257 1.13916 29.1895V32.7953C1.13916 33.459 1.75706 33.9969 2.51839 33.9969H31.4823C32.2436 33.9969 32.8615 33.459 32.8615 32.7953V29.1895C32.8615 28.5257 32.2443 27.9878 31.4823 27.9878H19.214H14.8487Z" stroke="black" stroke-width="2" stroke-miterlimit="10" stroke-linecap="round" stroke-linejoin="round"/>
<path d="M32.8615 11.459C32.8615 12.0146 32.2443 12.4658 31.4823 12.4658H2.51839C1.75706 12.4658 1.13916 12.0154 1.13916 11.459C2.16255 5.73073 8.86975 1.30695 17.0003 1.30695C25.1309 1.30695 31.8409 5.73073 32.8615 11.459Z" stroke="black" stroke-width="2" stroke-miterlimit="10" stroke-linecap="round" stroke-linejoin="round"/>
<path d="M21.9932 19.8999H12.0076L17.0018 25.3972L21.9932 19.8999Z" stroke="black" stroke-width="2" stroke-miterlimit="10" stroke-linecap="round" stroke-linejoin="round"/>
<path d="M32.9927 16.1936C32.4672 16.4975 32.0562 16.8228 31.2776 16.9625C30.3342 17.238 29.086 17.1313 28.104 16.9625C26.7744 16.7238 26.5165 15.945 24.9304 15.6518C23.8779 15.4834 22.8092 15.4834 21.7567 15.6518C20.1713 15.945 19.9134 16.7231 18.5831 16.9625C17.6011 17.1313 16.3915 17.1313 15.4095 16.9625C14.0799 16.7238 13.822 15.945 12.2359 15.6518C11.1835 15.4834 10.1148 15.4834 9.0623 15.6518C7.47687 15.945 7.21896 16.7231 5.88869 16.9625C4.90667 17.1313 3.69709 17.1313 2.71507 16.9625C1.9365 16.8228 1.52549 16.4975 1 16.1936" stroke="black" stroke-width="2" stroke-miterlimit="10" stroke-linecap="round" stroke-linejoin="round"/>
</svg>
