<svg width="38" height="38" viewBox="0 0 38 38" fill="none" xmlns="http://www.w3.org/2000/svg">
<path d="M0 19L9.25325 27.1429V21.0357H25.9091V16.9643H9.25325V10.8571L0 19Z" fill="black"/>
<path d="M20.7985 7.2532e-05C18.5388 -0.00684838 16.3002 0.481585 14.2125 1.43708C12.1248 2.39257 10.2296 3.79613 8.63647 5.56644L11.3387 8.55122C13.8652 5.76064 17.2248 4.22182 20.7985 4.22182C24.3722 4.22182 27.7319 5.76064 30.2584 8.55122C32.7848 11.3418 34.178 15.0527 34.178 19C34.178 22.9474 32.7848 26.6583 30.2584 29.4489C27.7319 32.2394 24.3722 33.7783 20.7985 33.7783C17.2248 33.7783 13.8652 32.2394 11.3387 29.4489L8.63647 32.4336C11.8834 36.0221 16.2024 38 20.7985 38C25.3947 38 29.7137 36.0221 32.9606 32.4336C36.2094 28.8473 38.0001 24.0767 38.0001 19C38.0001 13.9234 36.2094 9.15282 32.9606 5.56644C31.3675 3.79613 29.4723 2.39257 27.3846 1.43708C25.2969 0.481585 23.0583 -0.00684838 20.7985 7.2532e-05Z" fill="black"/>
</svg>
